<?xml version="1.0" encoding="UTF-8"?>
<svg id="Layer_1" xmlns="http://www.w3.org/2000/svg" version="1.1" viewBox="0 0 563.32 146.48">
  <!-- Generator: Adobe Illustrator 30.2.1, SVG Export Plug-In . SVG Version: 2.1.1 Build 1)  -->
  <defs>
    <style>
      .st0 {
        fill: #3d1b63;
      }
    </style>
  </defs>
  <path class="st0" d="M8.52,0l123.24,8.37c.17.01.31.16.31.33v116.19c0,.16-.12.3-.28.32L.39,146.47c-.18.03-.35-.08-.38-.26v-.08L8.17.31c.01-.18.17-.32.35-.31h0ZM68.82,101.5c22.85.01,34.49.05,34.92.1.33.04.58.32.58.66,0,1.73,0,4.44-.02,8.13-.03,5.46,3.64,4.71,7.86,4.61.29,0,.58-.06.84-.17,1.51-.6,2.26-1.56,2.27-2.89.07-11.34.09-27.37.06-48.08,0-.36.22-.68.56-.81l5.82-2.17c.92-.34,1.38-1.36,1.04-2.28h0l-1.1-2.95c-.34-.91-1.36-1.37-2.28-1.03l-8.67,3.23c-.23.09-.49-.02-.58-.26-.03-.09-.04-.18-.02-.27.53-2.29.31-4.16-.68-5.63-6.89-10.21-10.35-15.34-10.39-15.39-2.23-3.05-4.81-4.61-7.75-4.69-2.46-.07-9.93-.1-22.42-.11-12.48,0-19.95.02-22.41.08-2.94.08-5.53,1.64-7.76,4.68-.04.05-3.51,5.18-10.4,15.38-.99,1.47-1.22,3.34-.69,5.63.06.24-.08.49-.33.55-.09.02-.19.02-.27-.02l-8.67-3.24c-.92-.34-1.94.12-2.28,1.03l-1.1,2.95c-.34.91.12,1.93,1.03,2.28l5.82,2.17c.34.13.56.45.56.81-.05,20.71-.05,36.74,0,48.08,0,1.33.76,2.29,2.27,2.9.26.11.55.16.84.17,4.22.1,7.89.86,7.86-4.6v-8.13c0-.34.25-.62.59-.66.43-.05,12.06-.07,34.91-.06h-.01Z"/>
  <path d="M549.4,56.9c.1.09.26.09.35,0,.04-.05.07-.1.07-.17v-22.67c0-.3.25-.55.55-.55h12.36c.33,0,.59.26.59.58h0v66.35c0,.31-.26.56-.57.56h-11.06c-.46,0-.84-.37-.84-.83v-2.66c0-.26-.21-.47-.47-.47-.11,0-.22.04-.31.12-5.81,5.22-12.15,6.26-19.01,3.13-10.88-4.98-12.25-20.66-10.24-31.38,1.4-7.5,5.88-14.18,13.64-15.89,6-1.33,10.98-.03,14.94,3.89h0ZM533.57,77.22c-.02,6.64,1.78,15.74,11.06,13.4,1.6-.4,3.03-1.33,4.28-2.79,1.48-1.71.9-6.64.91-10.57.01-3.92.61-8.85-.85-10.57-1.25-1.47-2.67-2.4-4.27-2.81-9.26-2.39-11.11,6.7-11.13,13.34Z"/>
  <path class="st0" d="M68.85,33.75c4.99,0,9.97,0,14.93.02,3.29,0,5.44.29,6.45.84,2.51,1.4,3.58,3.47,5.11,5.8,3.11,4.75,6.03,9.29,8.76,13.64.18.27.26.6.24.92-.12,1.79-.97,2.71-2.54,2.74-1.44.03-12.42.04-32.95.04s-31.51,0-32.94-.04c-1.57-.03-2.42-.95-2.54-2.74-.02-.32.06-.65.24-.92,2.73-4.35,5.65-8.89,8.76-13.64,1.53-2.33,2.6-4.4,5.11-5.8,1.01-.55,3.16-.83,6.45-.84,4.95,0,9.93-.02,14.92-.02Z"/>
  <path d="M209.33,37c2.08,0,4.09,0,6.04.02.27,0,.5.17.6.42l23.54,63.09c.07.17-.02.36-.19.43-.04.02-.08.02-.12.02h-13.86c-.24,0-.44-.15-.52-.36l-4.47-11.96c-.09-.25-.33-.42-.6-.42-2.53,0-5.99,0-10.39.01h-10.38c-.27,0-.51.17-.6.42l-4.46,11.97c-.08.21-.28.36-.52.36l-13.86.02c-.18,0-.33-.15-.33-.33,0-.04,0-.08.02-.12l23.46-63.12c.1-.25.34-.42.61-.42,1.95-.02,3.96-.03,6.03-.03h0ZM202.14,76.55c-.06.18.03.37.21.43.03.01.07.02.11.02h13.82c.19,0,.34-.15.34-.34,0-.04,0-.07-.02-.11l-6.91-21.14c-.06-.18-.26-.27-.43-.21-.1.03-.17.11-.21.21l-6.91,21.14h0Z"/>
  <path d="M374.57,100.63v-63.27c0-.2.16-.36.36-.36h41.28c.2,0,.36.16.36.36v10.77c0,.2-.16.36-.36.36h-27.28c-.2,0-.36.16-.36.36h0v14.79c0,.2.16.36.36.36h24.28c.2,0,.36.16.36.36v10.52c0,.2-.16.36-.36.36h-24.28c-.2,0-.36.16-.36.36h0v25.03c0,.2-.16.36-.36.36h-13.28c-.2,0-.36-.16-.36-.36h0Z"/>
  <path d="M309.82,42.37v10.62c0,.28.23.5.51.5h6.36c.64,0,1.15.51,1.15,1.15h0v7.24c0,.76-.62,1.37-1.38,1.37h-6.02c-.35,0-.64.29-.64.65.03,4.54.03,11.57,0,21.09-.01,4.05.4,5.81,4.8,5.78,1.5-.01,2.54-.06,3.11-.13.3-.04.57.17.61.47v9c0,.35-.24.67-.59.77-3.85,1.07-7.4,1.35-10.63.84-6.95-1.1-10.5-5.22-10.65-12.36-.24-11.38-.25-19.85-.03-25.4.01-.38-.28-.7-.66-.71h-5.05c-.65,0-1.17-.52-1.17-1.16h0v-7.4c0-.67.55-1.21,1.22-1.21h5.03c.29,0,.53-.24.53-.53v-10.68c0-.29.23-.52.51-.52h12.38c.34,0,.61.28.61.62h0Z"/>
  <path d="M343.88,52.49c14.95,0,22.64,10.59,22.65,24.73.02,14.14-7.65,24.76-22.6,24.77-14.94.02-22.64-10.58-22.65-24.72-.02-14.14,7.65-24.76,22.6-24.78ZM334.79,77.26c0,6.12,1.39,13.75,9.14,13.75,7.74-.01,9.12-7.65,9.11-13.77-.01-6.13-1.4-13.76-9.14-13.75-7.75,0-9.12,7.64-9.11,13.77Z"/>
  <path d="M484.94,57.59c3.63-3.52,8-5.2,13.1-5.03,9.15.29,14.67,5.99,14.9,15.02.18,7.45.2,18.52.06,33.21,0,.14-.12.26-.26.26h-12.86c-.19,0-.35-.16-.35-.35.05-16.85.04-27.4-.01-31.64-.08-6.54-8.47-6.42-12.39-3.78-1.49.99-2.22,2.47-2.21,4.44.06,9.62.07,19.85.03,30.69,0,.34-.29.62-.63.62h-12.19c-.33,0-.59-.27-.59-.6h0v-46.29c0-.36.29-.65.65-.65h11.41c.39,0,.7.31.7.7v3.13c0,.21.18.38.39.37.09,0,.18-.04.25-.1h0Z"/>
  <path d="M272.11,97.18c0-.21-.18-.38-.39-.37-.09,0-.18.04-.25.1-3.63,3.53-7.99,5.21-13.08,5.05-9.15-.27-14.67-5.96-14.92-14.98-.19-7.45-.23-18.51-.12-33.19,0-.14.12-.26.26-.26h0l12.85-.02c.19,0,.35.16.35.35-.02,16.84,0,27.38.07,31.62.09,6.53,8.47,6.4,12.39,3.75,1.48-.99,2.21-2.47,2.2-4.44-.08-9.61-.11-19.84-.09-30.67,0-.34.29-.62.63-.62l12.18-.02c.32,0,.58.26.59.59l.09,46.26c0,.36-.29.65-.65.65h0l-11.4.03c-.39,0-.7-.3-.71-.69h0v-3.14h0Z"/>
  <path d="M450.06,97.18c0-.21-.18-.38-.39-.37-.09,0-.18.04-.25.1-3.62,3.52-7.98,5.2-13.07,5.03-9.14-.28-14.66-5.97-14.89-14.98-.19-7.45-.22-18.5-.09-33.16,0-.14.12-.26.26-.26h12.84c.19,0,.34.14.35.33-.03,16.83-.02,27.37.04,31.6.08,6.53,8.46,6.4,12.37,3.76,1.49-.99,2.22-2.47,2.2-4.43-.07-9.61-.08-19.82-.05-30.65,0-.34.29-.62.63-.62h12.17c.33,0,.59.26.59.59h0l.04,46.22c0,.36-.29.65-.65.65h-11.39c-.39.01-.7-.3-.7-.69h0s-.01-3.12-.01-3.12Z"/>
  <path class="st0" d="M26.22,65.54c8.08-.62,16.38,2.29,20.48,9.57.45.79.64,1.46.57,2.01-.16,1.21-1.24,2.15-2.59,2.27-4.7.41-16.89-1.9-18.2-7.41-.57-2.38-.86-4.3-.87-5.77,0-.35.26-.64.61-.67Z"/>
  <path class="st0" d="M112.11,66.2c0,1.47-.29,3.39-.86,5.76-1.31,5.5-13.47,7.82-18.17,7.41-1.35-.11-2.42-1.05-2.59-2.26-.07-.55.12-1.22.57-2.01,4.09-7.27,12.38-10.18,20.44-9.57.35.03.62.32.61.67Z"/>
</svg>